HIERARCHY
ROOT mixamorig:Hips
{
	OFFSET 0.000000 201.639420 0.000000
	CHANNELS 6 Xposition Yposition Zposition Xrotation Yrotation Zrotation
	JOINT mixamorig:Spine
	{
		OFFSET 0.006200 19.524994 -2.481800
		CHANNELS 3 Xrotation Yrotation Zrotation
		JOINT mixamorig:Spine1
		{
			OFFSET -0.000900 22.835007 -2.825400
			CHANNELS 3 Xrotation Yrotation Zrotation
			JOINT mixamorig:Spine2
			{
				OFFSET -0.020600 26.552490 -3.193300
				CHANNELS 3 Xrotation Yrotation Zrotation
				JOINT mixamorig:Neck
				{
					OFFSET -0.060000 30.701813 1.352200
					CHANNELS 3 Xrotation Yrotation Zrotation
					JOINT mixamorig:Head
					{
						OFFSET -0.087200 22.547607 3.670900
						CHANNELS 3 Xrotation Yrotation Zrotation
						JOINT mixamorig:HeadTop_End
						{
							OFFSET -0.830600 40.355194 7.893500
							CHANNELS 3 Xrotation Yrotation Zrotation
							End Site
							{
								OFFSET 0.000000 30.592346 0.000000
							}
						}
						JOINT mixamorig:RightEye
						{
							OFFSET -6.302100 18.118591 16.197100
							CHANNELS 3 Xrotation Yrotation Zrotation
							End Site
							{
								OFFSET 0.000000 30.592346 0.000000
							}
						}
						JOINT mixamorig:LeftEye
						{
							OFFSET 6.741500 18.382690 16.401899
							CHANNELS 3 Xrotation Yrotation Zrotation
							End Site
							{
								OFFSET 0.000000 30.592346 0.000000
							}
						}
					}
				}
				JOINT mixamorig:LeftShoulder
				{
					OFFSET 11.924900 18.230499 1.425400
					CHANNELS 3 Xrotation Yrotation Zrotation
					JOINT mixamorig:LeftArm
					{
						OFFSET 25.435989 -0.697632 -5.229300
						CHANNELS 3 Xrotation Yrotation Zrotation
						JOINT mixamorig:LeftForeArm
						{
							OFFSET 54.684776 0.000000 0.000000
							CHANNELS 3 Xrotation Yrotation Zrotation
							JOINT mixamorig:LeftHand
							{
								OFFSET 55.098175 0.000000 0.000000
								CHANNELS 3 Xrotation Yrotation Zrotation
								JOINT mixamorig:LeftHandMiddle1
								{
									OFFSET 23.369751 0.000000 0.000000
									CHANNELS 3 Xrotation Yrotation Zrotation
									JOINT mixamorig:LeftHandMiddle2
									{
										OFFSET 6.378677 0.000000 0.000000
										CHANNELS 3 Xrotation Yrotation Zrotation
										JOINT mixamorig:LeftHandMiddle3
										{
											OFFSET 6.148331 0.000000 0.000000
											CHANNELS 3 Xrotation Yrotation Zrotation
											JOINT mixamorig:LeftHandMiddle4
											{
												OFFSET 6.582504 0.000000 0.000000
												CHANNELS 3 Xrotation Yrotation Zrotation
												End Site
												{
													OFFSET -1.168900 6.395691 1.028606
												}
											}
										}
									}
								}
								JOINT mixamorig:LeftHandThumb1
								{
									OFFSET 7.235672 -3.848206 5.434273
									CHANNELS 3 Xrotation Yrotation Zrotation
									JOINT mixamorig:LeftHandThumb2
									{
										OFFSET 6.568451 -3.792297 3.792300
										CHANNELS 3 Xrotation Yrotation Zrotation
										JOINT mixamorig:LeftHandThumb3
										{
											OFFSET 6.063080 -3.500519 3.500518
											CHANNELS 3 Xrotation Yrotation Zrotation
											JOINT mixamorig:LeftHandThumb4
											{
												OFFSET 4.793182 -2.767334 2.767349
												CHANNELS 3 Xrotation Yrotation Zrotation
												End Site
												{
													OFFSET 0.101639 6.054260 1.275483
												}
											}
										}
									}
								}
								JOINT mixamorig:LeftHandIndex1
								{
									OFFSET 23.101074 -0.309540 4.992809
									CHANNELS 3 Xrotation Yrotation Zrotation
									JOINT mixamorig:LeftHandIndex2
									{
										OFFSET 6.226883 0.000000 0.000000
										CHANNELS 3 Xrotation Yrotation Zrotation
										JOINT mixamorig:LeftHandIndex3
										{
											OFFSET 6.094330 0.000000 0.000000
											CHANNELS 3 Xrotation Yrotation Zrotation
											JOINT mixamorig:LeftHandIndex4
											{
												OFFSET 5.482605 0.000000 0.000000
												CHANNELS 3 Xrotation Yrotation Zrotation
												End Site
												{
													OFFSET -1.427902 5.233032 0.797164
												}
											}
										}
									}
								}
								JOINT mixamorig:LeftHandRing1
								{
									OFFSET 22.299240 0.021149 -3.964172
									CHANNELS 3 Xrotation Yrotation Zrotation
									JOINT mixamorig:LeftHandRing2
									{
										OFFSET 6.321869 0.000000 0.000000
										CHANNELS 3 Xrotation Yrotation Zrotation
										JOINT mixamorig:LeftHandRing3
										{
											OFFSET 5.899796 0.000000 0.000000
											CHANNELS 3 Xrotation Yrotation Zrotation
											JOINT mixamorig:LeftHandRing4
											{
												OFFSET 6.517899 0.000000 0.000000
												CHANNELS 3 Xrotation Yrotation Zrotation
												End Site
												{
													OFFSET -1.637299 6.232208 0.980890
												}
											}
										}
									}
								}
								JOINT mixamorig:LeftHandPinky1
								{
									OFFSET 20.463791 -0.302338 -8.562233
									CHANNELS 3 Xrotation Yrotation Zrotation
									JOINT mixamorig:LeftHandPinky2
									{
										OFFSET 6.908646 0.000000 0.000000
										CHANNELS 3 Xrotation Yrotation Zrotation
										JOINT mixamorig:LeftHandPinky3
										{
											OFFSET 4.622849 0.000000 0.000000
											CHANNELS 3 Xrotation Yrotation Zrotation
											JOINT mixamorig:LeftHandPinky4
											{
												OFFSET 5.216080 0.000000 0.000000
												CHANNELS 3 Xrotation Yrotation Zrotation
												End Site
												{
													OFFSET -0.606308 5.116241 0.814926
												}
											}
										}
									}
								}
							}
						}
					}
				}
				JOINT mixamorig:RightShoulder
				{
					OFFSET -12.001300 18.284088 1.348900
					CHANNELS 3 Xrotation Yrotation Zrotation
					JOINT mixamorig:RightArm
					{
						OFFSET -25.308500 -0.751312 -5.164599
						CHANNELS 3 Xrotation Yrotation Zrotation
						JOINT mixamorig:RightForeArm
						{
							OFFSET -54.684429 0.000000 0.000000
							CHANNELS 3 Xrotation Yrotation Zrotation
							JOINT mixamorig:RightHand
							{
								OFFSET -55.150291 0.000000 0.000000
								CHANNELS 3 Xrotation Yrotation Zrotation
								JOINT mixamorig:RightHandMiddle1
								{
									OFFSET -23.317566 0.000000 0.000000
									CHANNELS 3 Xrotation Yrotation Zrotation
									JOINT mixamorig:RightHandMiddle2
									{
										OFFSET -6.378403 0.000000 0.000000
										CHANNELS 3 Xrotation Yrotation Zrotation
										JOINT mixamorig:RightHandMiddle3
										{
											OFFSET -6.148193 0.000000 0.000000
											CHANNELS 3 Xrotation Yrotation Zrotation
											JOINT mixamorig:RightHandMiddle4
											{
												OFFSET -6.583389 0.000000 0.000000
												CHANNELS 3 Xrotation Yrotation Zrotation
												End Site
												{
													OFFSET 1.171692 6.395905 1.029786
												}
											}
										}
									}
								}
								JOINT mixamorig:RightHandThumb1
								{
									OFFSET -7.190521 -3.860474 5.435846
									CHANNELS 3 Xrotation Yrotation Zrotation
									JOINT mixamorig:RightHandThumb2
									{
										OFFSET -6.567429 -3.791718 3.791708
										CHANNELS 3 Xrotation Yrotation Zrotation
										JOINT mixamorig:RightHandThumb3
										{
											OFFSET -6.062469 -3.500153 3.500166
											CHANNELS 3 Xrotation Yrotation Zrotation
											JOINT mixamorig:RightHandThumb4
											{
												OFFSET -4.792618 -2.767029 2.767022
												CHANNELS 3 Xrotation Yrotation Zrotation
												End Site
												{
													OFFSET -0.100327 6.053253 1.276754
												}
											}
										}
									}
								}
								JOINT mixamorig:RightHandIndex1
								{
									OFFSET -23.048981 -0.310791 4.992554
									CHANNELS 3 Xrotation Yrotation Zrotation
									JOINT mixamorig:RightHandIndex2
									{
										OFFSET -6.227539 0.000000 0.000000
										CHANNELS 3 Xrotation Yrotation Zrotation
										JOINT mixamorig:RightHandIndex3
										{
											OFFSET -6.095047 0.000000 0.000000
											CHANNELS 3 Xrotation Yrotation Zrotation
											JOINT mixamorig:RightHandIndex4
											{
												OFFSET -5.484772 0.000000 0.000000
												CHANNELS 3 Xrotation Yrotation Zrotation
												End Site
												{
													OFFSET 1.420593 5.237305 0.797056
												}
											}
										}
									}
								}
								JOINT mixamorig:RightHandRing1
								{
									OFFSET -22.246323 0.020569 -3.963762
									CHANNELS 3 Xrotation Yrotation Zrotation
									JOINT mixamorig:RightHandRing2
									{
										OFFSET -6.322128 0.000000 0.000000
										CHANNELS 3 Xrotation Yrotation Zrotation
										JOINT mixamorig:RightHandRing3
										{
											OFFSET -5.900024 0.000000 0.000000
											CHANNELS 3 Xrotation Yrotation Zrotation
											JOINT mixamorig:RightHandRing4
											{
												OFFSET -6.518356 0.000000 0.000000
												CHANNELS 3 Xrotation Yrotation Zrotation
												End Site
												{
													OFFSET 1.636398 6.232697 0.982186
												}
											}
										}
									}
								}
								JOINT mixamorig:RightHandPinky1
								{
									OFFSET -20.411011 -0.303314 -8.561701
									CHANNELS 3 Xrotation Yrotation Zrotation
									JOINT mixamorig:RightHandPinky2
									{
										OFFSET -6.907349 0.000000 0.000000
										CHANNELS 3 Xrotation Yrotation Zrotation
										JOINT mixamorig:RightHandPinky3
										{
											OFFSET -4.623840 0.000000 0.000000
											CHANNELS 3 Xrotation Yrotation Zrotation
											JOINT mixamorig:RightHandPinky4
											{
												OFFSET -5.218353 0.000000 0.000000
												CHANNELS 3 Xrotation Yrotation Zrotation
												End Site
												{
													OFFSET 0.602097 5.118835 0.816273
												}
											}
										}
									}
								}
							}
						}
					}
				}
			}
		}
	}
	JOINT mixamorig:LeftUpLeg
	{
		OFFSET 18.168400 -13.561905 -0.039000
		CHANNELS 3 Xrotation Yrotation Zrotation
		JOINT mixamorig:LeftLeg
		{
			OFFSET 0.577358 -80.825211 -3.695000
			CHANNELS 3 Xrotation Yrotation Zrotation
			JOINT mixamorig:LeftFoot
			{
				OFFSET -0.577356 -83.370262 -6.520700
				CHANNELS 3 Xrotation Yrotation Zrotation
				JOINT mixamorig:LeftToeBase
				{
					OFFSET 0.750401 -20.798306 25.135401
					CHANNELS 3 Xrotation Yrotation Zrotation
					JOINT mixamorig:LeftToe_End
					{
						OFFSET -0.000500 0.001200 19.917799
						CHANNELS 3 Xrotation Yrotation Zrotation
						End Site
						{
							OFFSET 0.000000 19.917805 0.000000
						}
					}
				}
			}
		}
	}
	JOINT mixamorig:RightUpLeg
	{
		OFFSET -18.162500 -13.585098 -0.041000
		CHANNELS 3 Xrotation Yrotation Zrotation
		JOINT mixamorig:RightLeg
		{
			OFFSET -0.595024 -80.945297 -3.631900
			CHANNELS 3 Xrotation Yrotation Zrotation
			JOINT mixamorig:RightFoot
			{
				OFFSET 0.595024 -83.218193 -6.561200
				CHANNELS 3 Xrotation Yrotation Zrotation
				JOINT mixamorig:RightToeBase
				{
					OFFSET -0.753601 -20.807106 25.115000
					CHANNELS 3 Xrotation Yrotation Zrotation
					JOINT mixamorig:RightToe_End
					{
						OFFSET 0.000299 0.001700 19.918200
						CHANNELS 3 Xrotation Yrotation Zrotation
						End Site
						{
							OFFSET 0.000000 19.918203 0.000000
						}
					}
				}
			}
		}
	}
}
MOTION
Frames: 4
Frame Time: 0.033333
19.790056 354.187012 -45.051796 20.836124 -2.245464 -1.028285 13.948512 0.143352 -0.505100 26.026253 1.111905 -0.225637 26.032014 0.942788 -0.261972 -12.976816 0.580374 -2.731609 -32.177230 -0.052786 2.956565 0.000001 -0.000000 -0.000000 0.000001 -0.000000 -0.000000 0.000001 -0.000000 -0.000000 0.101754 1.981992 1.977920 -30.169041 -8.362619 -75.615310 -0.000303 -91.837241 -0.000190 -1.300987 -2.665947 12.323931 0.434085 2.410455 -20.414974 0.102600 1.186614 -9.882942 0.025607 0.594552 -4.932944 0.000002 0.000000 -0.000001 14.238801 23.782978 -7.540106 3.939045 7.948698 0.746785 -0.579465 1.575005 2.538716 -0.000001 -0.000001 0.000001 0.434769 2.412266 -20.430981 0.102267 1.184704 -9.866959 0.025589 0.594553 -4.932959 0.000001 -0.000001 -0.000002 0.434774 2.412263 -20.430971 0.102256 1.184707 -9.866964 0.025606 0.594558 -4.932954 0.000001 -0.000000 0.000002 1.840340 6.216673 -20.026350 0.094864 -2.870499 -10.370143 0.025593 0.594557 -4.932956 -0.000001 -0.000002 0.000001 0.780007 0.020600 2.603588 -22.048059 21.069061 60.029740 0.000754 98.704198 -0.000797 12.438726 -3.735385 -23.103286 0.514564 -2.629628 22.139961 0.736776 -3.119938 26.568193 0.186518 -1.602826 13.274072 0.000001 0.000000 -0.000001 31.910350 -21.010738 8.018337 14.280351 -2.267420 0.045525 3.524415 3.309344 -2.597290 0.000000 -0.000000 -0.000003 0.514562 -2.629640 22.139956 0.736780 -3.119914 26.568212 0.186524 -1.602837 13.274068 0.000003 0.000001 -0.000000 0.514567 -2.629643 22.139947 0.736776 -3.119920 26.568210 0.186521 -1.602827 13.274079 -0.000000 0.000001 0.000000 0.514564 -2.629635 22.139945 0.736768 -3.119919 26.568215 0.186526 -1.602834 13.274074 -0.000001 0.000000 0.000001 -62.598663 -0.061577 3.769988 53.747749 4.427469 0.000877 -8.392089 -0.456597 2.963648 -0.000010 0.000003 0.000001 0.000000 0.000000 -0.000000 -61.812208 0.770168 2.701269 48.982254 -8.740813 -0.861127 -4.555517 -0.262877 3.823961 -0.000002 0.000001 0.000000 0.000000 -0.000000 0.000000 
19.756418 354.218628 -44.982651 20.538442 -2.362692 -0.976603 13.883430 0.144847 -0.493778 25.903067 1.130697 -0.207039 25.907249 1.006424 -0.244652 -12.629386 0.475282 -2.713199 -32.174641 -0.568034 2.966123 -0.000002 0.000000 0.000000 -0.000002 0.000000 0.000000 -0.000002 0.000000 0.000000 0.115992 1.721773 2.536620 -29.947364 -8.131759 -75.472368 -0.002043 -91.117408 -0.001859 -1.952962 -3.081156 10.802111 0.434098 2.410444 -20.414966 0.102596 1.186602 -9.882952 0.025618 0.594551 -4.932947 -0.000001 -0.000003 0.000000 14.238802 23.782977 -7.540115 3.939033 7.948703 0.746779 -0.579467 1.575005 2.538719 -0.000002 0.000000 -0.000000 0.434775 2.412259 -20.430960 0.102266 1.184699 -9.866968 0.025602 0.594551 -4.932959 -0.000001 -0.000001 -0.000002 0.434772 2.412274 -20.430952 0.102274 1.184703 -9.866967 0.025607 0.594552 -4.932959 -0.000002 -0.000003 -0.000003 1.840351 6.216682 -20.026340 0.094866 -2.870522 -10.370171 0.025599 0.594555 -4.932966 -0.000001 0.000000 0.000001 0.823499 0.462748 1.552833 -21.201150 20.240060 60.337652 0.000498 98.399817 -0.000445 14.206285 -3.504337 -22.705869 0.515324 -2.631503 22.156432 0.736768 -3.119934 26.568220 0.186527 -1.602824 13.274071 0.000000 -0.000001 -0.000004 31.910364 -21.010753 8.018327 14.280353 -2.267410 0.045508 3.524429 3.309348 -2.597272 0.000001 0.000000 -0.000001 0.515319 -2.631504 22.156442 0.736784 -3.119923 26.568208 0.186513 -1.602819 13.274073 0.000002 0.000000 -0.000000 0.515321 -2.631516 22.156437 0.736784 -3.119925 26.568208 0.186510 -1.602816 13.274083 0.000001 -0.000003 -0.000002 0.515320 -2.631503 22.156440 0.736770 -3.119929 26.568217 0.186516 -1.602822 13.274077 0.000003 -0.000000 0.000001 -62.167364 0.008560 3.841467 53.740082 4.305478 0.026393 -8.591581 -0.431187 2.740935 0.000007 -0.000002 0.000000 -0.000000 0.000000 0.000000 -61.433467 0.673304 2.638855 49.017580 -8.478294 -0.790004 -4.735263 -0.267357 3.747931 -0.000003 -0.000002 0.000001 -0.000000 -0.000001 0.000000 
19.788292 354.265930 -44.852890 20.352646 -2.454667 -0.902310 13.715299 0.196908 -0.499438 25.593859 1.159850 -0.201250 25.598897 1.024456 -0.218005 -11.979557 0.357493 -2.931061 -32.222008 -1.092114 2.485830 -0.000004 0.000000 -0.000000 -0.000004 0.000000 -0.000000 -0.000004 0.000000 -0.000000 0.159836 1.199162 3.680006 -29.281871 -7.845402 -75.261349 -0.008795 -90.118445 -0.008840 -2.093592 -4.624141 10.933837 0.434098 2.410457 -20.414945 0.102603 1.186610 -9.882957 0.025617 0.594552 -4.932955 0.000002 -0.000002 -0.000003 14.238802 23.782997 -7.540099 3.939038 7.948703 0.746780 -0.579466 1.575007 2.538718 -0.000001 0.000000 0.000001 0.434767 2.412281 -20.430954 0.102280 1.184686 -9.866959 0.025605 0.594552 -4.932947 0.000001 0.000003 -0.000001 0.434766 2.412284 -20.430976 0.102280 1.184700 -9.866945 0.025605 0.594549 -4.932960 0.000002 -0.000001 0.000001 1.840347 6.216694 -20.026333 0.094852 -2.870512 -10.370175 0.025596 0.594552 -4.932965 -0.000002 -0.000001 -0.000001 0.842125 0.897241 0.414485 -19.794013 19.390729 60.054090 -0.000071 97.740601 0.000119 15.791187 -2.798108 -21.899311 0.517538 -2.636962 22.204863 0.736792 -3.119939 26.568208 0.186524 -1.602828 13.274081 -0.000001 -0.000003 -0.000001 31.910360 -21.010748 8.018322 14.280365 -2.267414 0.045528 3.524423 3.309340 -2.597275 0.000000 0.000001 -0.000004 0.517544 -2.636960 22.204861 0.736789 -3.119925 26.568206 0.186510 -1.602821 13.274086 -0.000004 -0.000001 -0.000003 0.517553 -2.636968 22.204854 0.736774 -3.119928 26.568224 0.186520 -1.602820 13.274085 -0.000001 0.000003 0.000001 0.517535 -2.636955 22.204860 0.736777 -3.119929 26.568218 0.186516 -1.602826 13.274082 -0.000001 0.000001 0.000001 -61.817276 0.079545 3.816132 53.645320 4.208334 0.086741 -8.773655 -0.407292 2.541939 0.000002 -0.000000 0.000000 -0.000000 0.000000 -0.000000 -61.152794 0.607517 2.548910 49.005668 -8.239786 -0.749871 -4.880506 -0.267586 3.724586 -0.000000 -0.000003 0.000001 -0.000000 -0.000000 0.000000 
19.846533 354.392212 -44.663010 20.217013 -2.509422 -0.804333 13.455561 0.282891 -0.691133 25.119737 1.178542 -0.504018 25.126492 0.998362 -0.493235 -11.780934 0.332610 -2.501860 -30.780825 -0.883921 2.340957 -0.000001 0.000000 -0.000000 -0.000001 0.000000 -0.000000 -0.000001 0.000000 -0.000000 0.209399 0.473098 5.538350 -27.627699 -7.529973 -74.519099 0.000419 -89.272355 0.000348 -1.017455 -6.400872 12.576691 0.434097 2.410453 -20.414961 0.102596 1.186605 -9.882949 0.025607 0.594557 -4.932941 -0.000004 -0.000001 0.000004 14.238807 23.782999 -7.540099 3.939038 7.948701 0.746779 -0.579468 1.575006 2.538717 0.000002 -0.000000 0.000000 0.434769 2.412266 -20.430964 0.102256 1.184711 -9.866958 0.025625 0.594553 -4.932926 0.000001 0.000001 -0.000000 0.434767 2.412280 -20.430969 0.102263 1.184708 -9.866954 0.025608 0.594563 -4.932937 0.000001 0.000003 -0.000001 1.840345 6.216678 -20.026345 0.094853 -2.870502 -10.370151 0.025602 0.594563 -4.932940 -0.000002 -0.000003 -0.000001 0.936895 1.432518 0.223785 -17.824620 18.664486 58.996626 0.002123 96.433248 -0.002224 16.836561 -1.022616 -20.987279 0.521186 -2.645786 22.283453 0.736774 -3.119920 26.568213 0.186515 -1.602827 13.274076 0.000003 0.000001 0.000001 31.910364 -21.010739 8.018314 14.280361 -2.267426 0.045531 3.524408 3.309345 -2.597285 0.000001 0.000001 0.000001 0.521189 -2.645780 22.283455 0.736778 -3.119912 26.568217 0.186518 -1.602824 13.274083 0.000003 0.000001 0.000001 0.521186 -2.645787 22.283448 0.736777 -3.119917 26.568222 0.186518 -1.602830 13.274080 -0.000001 -0.000003 -0.000000 0.521195 -2.645776 22.283449 0.736779 -3.119930 26.568220 0.186509 -1.602820 13.274082 -0.000001 0.000003 0.000001 -61.441431 0.120253 3.754809 53.395960 4.156000 0.076087 -8.884236 -0.382883 2.295662 -0.000009 -0.000001 -0.000000 -0.000000 0.000000 0.000000 -60.864389 0.486123 2.345461 48.879494 -7.953409 -0.678402 -4.977351 -0.277540 3.757080 0.000004 -0.000003 -0.000001 0.000000 0.000000 0.000000 
